<svg width="80" height="80" viewBox="0 0 80 80" fill="none" xmlns="http://www.w3.org/2000/svg">
<g id="pluginIcon 1">
<g id="Group">
<path id="Background" d="M8 8V72H72V8H8Z" fill="#14B4C6"/>
<path id="Vector" d="M68 12H12V68H68V12Z" fill="black"/>
<path id="Vector_2" fill-rule="evenodd" clip-rule="evenodd" d="M40.3333 26C34.1111 26 30.2222 29.1111 28.6667 35.3333C31 32.2222 33.7222 31.0556 36.8333 31.8333C38.6084 32.2767 39.877 33.5652 41.2814 34.9902C43.5689 37.3123 46.2168 40 52 40C58.2222 40 62.1111 36.8889 63.6667 30.6667C61.3333 33.7778 58.6111 34.9444 55.5 34.1667C53.7249 33.7233 52.4563 32.4348 51.052 31.0098C48.7644 28.6877 46.1165 26 40.3333 26ZM28.6667 40C22.4444 40 18.5556 43.1111 17 49.3333C19.3333 46.2222 22.0556 45.0556 25.1667 45.8333C26.9417 46.2775 28.2104 47.5652 29.6147 48.9902C31.9022 51.3123 34.5501 54 40.3333 54C46.5556 54 50.4444 50.8889 52 44.6667C49.6667 47.7778 46.9444 48.9444 43.8333 48.1667C42.0583 47.7233 40.7896 46.4348 39.3853 45.0098C37.0978 42.6877 34.4499 40 28.6667 40Z" fill="#14B4C6"/>
</g>
</g>
</svg>
