<svg width="81" height="80" viewBox="0 0 81 80">
    <path d="M14.0875 72L8 67.1001L8 34.7919L38 46.6703L18.1404 72H14.0875Z" fill="url(#paint0_linear)"/>
    <path d="M28.9525 72L60.2741 39.9159L45.6709 8.46019L46.0581 8L72 8V72H28.9525Z" fill="url(#paint1_linear)"/>
    <path d="M42.4124 8H72V36.0366L57.0078 52L42 8.44696L42.4124 8Z" fill="url(#paint2_linear)"/>
    <path d="M38.3359 72H8V57.971L14.2344 37.2831L8 35.1596V8H47.4697L66 29.3845L38.5381 71.9259L38.3359 72Z"
          fill="url(#paint3_linear)"/>
    <path d="M68 12H12V68H68V12Z" fill="black"/>
    <path fill-rule="evenodd" clip-rule="evenodd"
          d="M40.3333 26C34.1111 26 30.2222 29.1111 28.6667 35.3333C31 32.2222 33.7222 31.0556 36.8333 31.8333C38.6084 32.2767 39.877 33.5652 41.2814 34.9902C43.5689 37.3123 46.2168 40 52 40C58.2222 40 62.1111 36.8889 63.6667 30.6667C61.3333 33.7778 58.6111 34.9444 55.5 34.1667C53.7249 33.7233 52.4563 32.4348 51.052 31.0098C48.7644 28.6877 46.1165 26 40.3333 26ZM28.6667 40C22.4444 40 18.5556 43.1111 17 49.3333C19.3333 46.2222 22.0556 45.0556 25.1667 45.8333C26.9417 46.2775 28.2104 47.5652 29.6147 48.9902C31.9022 51.3123 34.5501 54 40.3333 54C46.5556 54 50.4444 50.8889 52 44.6667C49.6667 47.7778 46.9444 48.9444 43.8333 48.1667C42.0583 47.7233 40.7896 46.4348 39.3853 45.0098C37.0978 42.6877 34.4499 40 28.6667 40Z"
          fill="#14B4C6"/>
    <defs>
        <linearGradient id="paint0_linear" x1="7.9907" y1="53.3822" x2="38.0159" y2="53.3822"
                        gradientUnits="userSpaceOnUse">
            <stop offset="0.2581" stop-color="#F97A12"/>
            <stop offset="0.4591" stop-color="#B07B58"/>
            <stop offset="0.7241" stop-color="#577BAE"/>
            <stop offset="0.9105" stop-color="#1E7CE5"/>
            <stop offset="1" stop-color="#087CFA"/>
        </linearGradient>
        <linearGradient id="paint1_linear" x1="40.8121" y1="30.089" x2="70.5968" y2="45.8787"
                        gradientUnits="userSpaceOnUse">
            <stop stop-color="#F97A12"/>
            <stop offset="0.0718" stop-color="#CB7A3E"/>
            <stop offset="0.1541" stop-color="#9E7B6A"/>
            <stop offset="0.242" stop-color="#757B91"/>
            <stop offset="0.3344" stop-color="#537BB1"/>
            <stop offset="0.4324" stop-color="#387CCC"/>
            <stop offset="0.5381" stop-color="#237CE0"/>
            <stop offset="0.6552" stop-color="#147CEF"/>
            <stop offset="0.7925" stop-color="#0B7CF7"/>
            <stop offset="1" stop-color="#087CFA"/>
        </linearGradient>
        <linearGradient id="paint2_linear" x1="60.9363" y1="50.9876" x2="47.2194" y2="7.30567"
                        gradientUnits="userSpaceOnUse">
            <stop stop-color="#FE315D"/>
            <stop offset="0.0784" stop-color="#CB417E"/>
            <stop offset="0.1601" stop-color="#9E4E9B"/>
            <stop offset="0.2474" stop-color="#755BB4"/>
            <stop offset="0.3392" stop-color="#5365CA"/>
            <stop offset="0.4365" stop-color="#386DDB"/>
            <stop offset="0.5414" stop-color="#2374E9"/>
            <stop offset="0.6576" stop-color="#1478F3"/>
            <stop offset="0.794" stop-color="#0B7BF8"/>
            <stop offset="1" stop-color="#087CFA"/>
        </linearGradient>
        <linearGradient id="paint3_linear" x1="22.692" y1="23.4362" x2="68.2565" y2="88.8209"
                        gradientUnits="userSpaceOnUse">
            <stop stop-color="#FE315D"/>
            <stop offset="0.04023" stop-color="#F63462"/>
            <stop offset="0.1037" stop-color="#DF3A71"/>
            <stop offset="0.1667" stop-color="#C24383"/>
            <stop offset="0.2912" stop-color="#AD4A91"/>
            <stop offset="0.5498" stop-color="#755BB4"/>
            <stop offset="0.9175" stop-color="#1D76ED"/>
            <stop offset="1" stop-color="#087CFA"/>
        </linearGradient>
    </defs>
</svg>
